PathFileType	3	(X/Y/Z)	D:\Jess\PFP\Labelled\PA02\20250516\SRRun01.trc
DataRate	CameraRate	NumFrames	NumMarkers	Units	OrigDataRate	OrigDataStartFrame	OrigNumFrames
250.0	250.0	4	37	mm	250.0	36250	2501
Frame#	Time	C7			T10			CLAV			LSHO			RSHO			LASIS			RASIS			LPSIS			RPSIS			LILCR			RILCR			LGTR			LTHI			LLTHI			LLEP			LMEP			LPSH			LLSH			LDSH			LLMAL			LMMAL			LTOE			L5TH			LHEE			RGTR			RTHI			RLTHI			RLEP			RMEP			RPSH			RLSH			RDSH			RLMAL			RMMAL			RTOE			R5TH			RHEE			
		X1	Y1	Z1	X2	Y2	Z2	X3	Y3	Z3	X4	Y4	Z4	X5	Y5	Z5	X6	Y6	Z6	X7	Y7	Z7	X8	Y8	Z8	X9	Y9	Z9	X10	Y10	Z10	X11	Y11	Z11	X12	Y12	Z12	X13	Y13	Z13	X14	Y14	Z14	X15	Y15	Z15	X16	Y16	Z16	X17	Y17	Z17	X18	Y18	Z18	X19	Y19	Z19	X20	Y20	Z20	X21	Y21	Z21	X22	Y22	Z22	X23	Y23	Z23	X24	Y24	Z24	X25	Y25	Z25	X26	Y26	Z26	X27	Y27	Z27	X28	Y28	Z28	X29	Y29	Z29	X30	Y30	Z30	X31	Y31	Z31	X32	Y32	Z32	X33	Y33	Z33	X34	Y34	Z34	X35	Y35	Z35	X36	Y36	Z36	X37	Y37	Z37	

1251	144.996	821.5034862621243	1467.173035925783	-321.2236068331846	725.7740661631309	1205.809845576922	-295.3237243242967	962.0015054540185	1360.503004855831	-321.7817133918517	887.9034158700381	1397.496710137411	-493.519033654666	898.1114236832948	1419.852825542516	-143.3345686082708	889.1533571729533	920.4789205751194	-472.0073573506552	937.9690350732143	889.5462617676013	-223.1815700470082	700.5529730604844	1001.505088002454	-312.7110927648995	705.6509614528246	997.5979283836966	-261.5076458869703	818.502917615751	1024.863120921429	-493.2312412785087	869.547700941896	956.7091783086464	-116.1284573436421	817.9438902899932	850.8684803113747	-524.4661857423914	941.835410696502	706.836709993168	-453.6352060903513	834.5755184471919	588.4690805792419	-479.8437577701932	848.7752794559813	470.4708913923693	-450.0956921790307	nan	nan	nan	883.5623429658641	355.305330515969	-382.1000100247407	769.6561145900783	265.5371289821819	-422.2397895840179	789.5019461855845	190.3005490154149	-336.0904760780277	687.9164214340414	111.5291188827806	-362.0850142556382	nan	nan	nan	825.1914992858149	59.79727159960377	-328.8878192955858	791.7704218845031	35.62876834532717	-379.422975098124	610.9446705294728	95.497533637394	-312.8619011764522	869.6784268615113	811.4065151680277	-103.2862690807785	998.4303634884645	707.1284086104481	-230.9782471258461	921.3810571603029	585.119735112169	-141.9173406682889	948.3074153269598	468.2542803447449	-165.3652893554011	nan	nan	nan	902.977330123153	374.3843600178907	-208.9623784758967	773.1573796804325	402.8445656014277	-157.7643582970102	703.739576486463	300.6276014090579	-211.0378039959382	580.0418032882992	315.4336436645457	-188.5634794273778	nan	nan	nan	581.0546783732472	172.1835907376253	-171.3594872725998	543.869123582268	194.4880713921459	-148.6359081302385	546.8314598190365	357.8809871248323	-267.3599173761505	
1252	145	820.9982710051059	1467.91679897934	-321.5025608768171	725.3137995046125	1207.080047543895	-296.7275271775157	961.5706044198931	1361.851683183349	-320.6859818494124	890.0747802962338	1399.362970263765	-493.1720155010555	895.2478250248869	1421.759212469374	-143.1516660243009	888.2592692114617	921.2080112754755	-471.3365143956704	937.0366899304846	891.1433147722076	-222.9874875855249	699.4757874512412	1002.886088873986	-312.8615291854878	704.5604903474152	999.1511256371448	-261.718400922423	817.4208259670344	1025.530428570331	-493.314391716858	868.629876092295	959.0129055593188	-116.606475108197	816.5004964944004	851.03898813482	-523.6888660737353	937.9981992711665	705.517648690318	-453.0801102816137	828.8023701197178	588.8552303679983	-479.7878568366593	840.748249536533	470.0439615493514	-449.8596882105925	nan	nan	nan	874.8719587159393	354.6042092891398	-381.8693158406567	760.6441442512306	265.6580954937551	-422.1777472824651	779.7594424685396	190.2930284932314	-336.195158153373	677.7545873657443	112.0628459745205	-362.3353454911249	nan	nan	nan	814.7216855130915	59.56068621322331	-328.8715017357251	781.2637790587041	35.59901750396256	-379.4558399983121	600.6329316876803	96.3080454860127	-313.2137307833521	867.8322137640348	812.8313492274702	-103.3913829674473	999.5376947215921	710.3260842012186	-230.8301817956978	925.7728373384214	587.926507582685	-141.4817500710038	954.6342593784144	471.0090643059575	-165.6259429066307	nan	nan	nan	910.5611751006328	376.5707458768608	-209.1157653554326	780.5311664375739	402.5358164860974	-157.3143712569313	712.7447348874375	298.5371078079198	-210.0927551479483	588.7390655342664	310.5495312900165	-187.2260541228425	nan	nan	nan	594.3894394193543	167.7176382824661	-169.1754495259036	556.6819620882829	188.9180491253382	-146.3191796450182	553.5950121784672	351.5074725343938	-266.1228355451575	
1253	145.004	820.4922444249211	1468.804838888049	-321.8859469774549	724.9394056977827	1208.440696344836	-298.2217434868083	961.1251405280609	1363.443746123482	-319.5522507565796	892.2494510771642	1401.478157381683	-492.7911801752845	892.3161289063964	1423.878309101472	-142.9870881340551	887.4808425481742	922.1509995570013	-470.6906470016321	936.1395530433427	893.0255515699729	-222.779868392241	698.4534927086362	1004.315615044999	-313.1004483213184	703.487442377998	1000.776639501029	-262.0078325024575	816.4854839463287	1026.245973118901	-493.4671420258884	867.6980654754055	961.5651710752539	-117.1003229855171	815.1303356031483	851.306015646889	-522.9848468892462	934.075914653245	704.274306394231	-452.5465092584662	822.8103221474781	589.4071598798498	-479.5742087363004	832.591536917674	469.8565797304094	-449.5039634395345	nan	nan	nan	866.0307873064862	354.1564097953811	-381.4407951735795	751.5358511734303	265.9748840234026	-422.0449509902593	769.9817113595008	190.4328838189646	-336.2511154968419	667.6109056084389	112.6953937902113	-362.5566522822214	nan	nan	nan	804.2539043760139	59.3515072856929	-328.8403059976719	770.7612169976949	35.60778645173949	-379.4712480882023	590.3549223759198	97.23789833926551	-313.5710439649479	865.9387147273308	814.423299190059	-103.4618150799769	1000.565352023157	713.7241615780537	-230.6163935643313	930.0274865020655	591.0392187041663	-141.0734989176195	960.8008100481602	474.0901798495972	-165.9429221673574	nan	nan	nan	917.9975125911056	378.9536090357613	-209.3496470234316	787.7920247356597	402.1934974263846	-156.931681433991	721.8081164102583	296.4091092071184	-209.238399561579	597.5528197423208	305.4633228403469	-185.9676325613573	nan	nan	nan	608.0225165103931	163.2314539580089	-167.0648635493018	569.798011677657	183.2725448204145	-144.0852267745032	560.5162128934488	344.7901817158025	-264.9742184947278	
1254	145.008	819.9972566862564	1469.847669584218	-322.3848914802431	724.6480852552429	1209.892581532531	-299.8108250658377	960.6723125213889	1365.25708742183	-318.3771738775261	894.4219046095926	1403.820553131076	-492.3686661381476	889.3357698009768	1426.188421098837	-142.8456497393854	886.8184149137873	923.2867601022074	-470.0931870882961	935.2757878353335	895.1611677554595	-222.55634974576	697.5077674378193	1005.801263378693	-313.4235870569784	702.4506216362659	1002.478840398029	-262.3707188544807	815.7133125212348	1027.024312573292	-493.6824606177477	866.7374430807927	964.3213979137624	-117.5747756936777	813.8233989992434	851.6845295264576	-522.3718579683434	930.0797716931378	703.1314235712731	-452.0156642080411	816.6394088837295	590.1362557033173	-479.200324964876	824.3408188394226	469.9378136419633	-449.0293055108088	nan	nan	nan	857.0576531982102	353.976159800822	-380.836763387437	742.341167213688	266.50413515555	-421.8489030756662	760.1814287929774	190.7311501611949	-336.2656762960187	657.4930235587545	113.4365491904661	-362.7585413494448	nan	nan	nan	793.7885773427107	59.17109324816074	-328.7989673929757	760.2637388093668	35.65121200725428	-379.4718794391845	580.1192264739271	98.30148864095442	-313.9384631464879	864.0295630946708	816.1873918242526	-103.4932955151748	1001.511137992705	717.3206216029629	-230.3438262060467	934.1244486519885	594.4403346303088	-140.6985019424131	966.7819623583682	477.4913461570106	-166.3101120033131	nan	nan	nan	925.2736175576747	381.5208951471049	-209.6548454403911	794.9307044596214	401.8102367605069	-156.613389104993	730.9306823868675	294.2532133219652	-208.477984980424	606.4969395916768	300.1898211275319	-184.7905066484227	nan	nan	nan	621.9492365821127	158.7511003568126	-165.0396376426933	583.2192088615481	177.5779749565904	-141.9419817553278	567.6138562164025	337.7505977726508	-263.9112918789428	
